<?xml version="1.0" standalone="no"?>
<!DOCTYPE svg PUBLIC "-//W3C//DTD SVG 20010904//EN"
 "http://www.w3.org/TR/2001/REC-SVG-20010904/DTD/svg10.dtd">
<svg version="1.0" xmlns="http://www.w3.org/2000/svg"
 width="700.000000pt" height="700.000000pt" viewBox="0 0 700.000000 700.000000"
 preserveAspectRatio="xMidYMid meet">
<metadata>
Created by potrace 1.14, written by Peter Selinger 2001-2017
</metadata>
<g transform="translate(0.000000,700.000000) scale(0.100000,-0.100000)"
fill="#000000" stroke="none">
<path d="M784 6285 c-297 -55 -550 -295 -630 -600 -18 -67 -19 -139 -19 -1460
l0 -1390 22 -81 c78 -294 295 -509 588 -585 l90 -23 1227 -1 c675 0 1230 -4
1234 -8 5 -5 9 -849 5 -1034 l-1 -33 -640 0 c-691 0 -680 1 -739 -53 -105 -96
-63 -284 73 -327 30 -10 365 -12 1515 -13 1467 0 1477 1 1516 21 127 65 153
212 56 315 -54 58 -37 57 -737 57 -354 0 -644 3 -645 8 -5 47 -2 1047 3 1055
5 8 340 12 1230 12 935 1 1237 4 1283 14 329 68 575 317 640 645 12 59 14 306
12 1451 -2 1560 5 1414 -86 1600 -100 201 -269 341 -507 418 l-69 22 -2675 1
c-2163 2 -2689 -1 -2746 -11z m5366 -368 c165 -39 298 -176 328 -338 5 -24 8
-638 7 -1364 -1 -1423 2 -1353 -53 -1455 -59 -110 -183 -198 -307 -217 -11 -2
-1192 -4 -2625 -4 -1888 -1 -2618 2 -2653 10 -144 34 -260 140 -313 286 -17
47 -18 127 -19 1380 -1 1109 1 1339 13 1384 42 164 163 283 322 317 84 18
5223 18 5300 1z"/>
<path d="M4982 5528 c-91 -10 -195 -48 -276 -101 -109 -70 -215 -203 -257
-324 -32 -91 -32 -91 -35 -218 l-2 -120 -119 -78 c-193 -129 -191 -128 -238
-112 -22 7 -99 32 -172 54 -131 41 -132 41 -144 79 -61 194 -225 358 -419 420
-179 57 -345 42 -511 -44 -221 -116 -364 -370 -345 -618 3 -44 10 -97 16 -116
14 -47 16 -43 -35 -79 -24 -17 -50 -37 -57 -44 -7 -7 -57 -45 -110 -84 l-97
-72 -65 39 c-307 186 -693 101 -892 -198 -197 -295 -111 -709 187 -902 120
-78 195 -102 334 -106 132 -4 208 11 315 64 264 130 407 414 354 701 -8 46
-12 87 -7 91 4 4 74 60 156 125 l147 117 38 -24 c273 -181 634 -142 845 91 43
48 102 137 123 186 l13 33 153 -50 c112 -37 172 -51 223 -54 106 -4 114 0 423
193 52 33 69 39 77 30 27 -35 128 -106 192 -135 197 -90 432 -77 618 36 75 45
180 150 223 224 150 253 110 587 -94 792 -157 157 -354 229 -562 204z m204
-406 c66 -34 127 -105 140 -165 21 -93 5 -177 -45 -244 -69 -90 -188 -127
-305 -94 -71 21 -150 102 -172 178 -42 146 37 299 177 342 52 16 158 7 205
-17z m-1975 -339 c134 -44 211 -202 165 -341 -63 -190 -314 -248 -453 -106
-102 105 -103 282 -2 382 77 78 179 101 290 65z m-1340 -962 c94 -29 170 -142
171 -254 1 -156 -111 -271 -267 -271 -116 0 -203 55 -251 158 -29 62 -28 170
1 230 34 70 107 130 180 146 40 9 122 5 166 -9z"/>
</g>
</svg>
